<?xml version="1.0" standalone="no"?>
<!DOCTYPE svg PUBLIC "-//W3C//DTD SVG 20010904//EN"
 "http://www.w3.org/TR/2001/REC-SVG-20010904/DTD/svg10.dtd">
<svg version="1.0" xmlns="http://www.w3.org/2000/svg"
 width="1024.000000pt" height="1024.000000pt" viewBox="0 0 1024.000000 1024.000000"
 preserveAspectRatio="xMidYMid meet">
<metadata>
Created by potrace 1.11, written by Peter Selinger 2001-2013
</metadata>
<g transform="translate(0.000000,1024.000000) scale(0.100000,-0.100000)"
fill="#000000" stroke="none">
<path d="M4773 9451 c-78 -26 -121 -67 -160 -151 -15 -30 -17 -92 -19 -474 -2
-241 -4 -440 -6 -441 -2 -2 -55 -6 -118 -10 -145 -7 -277 -23 -340 -40 -5 -2
-81 -18 -90 -20 -35 -7 -144 -45 -218 -76 -90 -38 -115 -51 -212 -107 -58 -34
-205 -138 -250 -177 -66 -57 -206 -200 -245 -250 -22 -27 -48 -59 -58 -70 -10
-11 -32 -42 -50 -70 -17 -27 -34 -52 -37 -55 -12 -10 -96 -166 -132 -245 -64
-142 -114 -316 -133 -465 -4 -30 -9 -64 -12 -75 -8 -43 -4 -363 6 -420 6 -33
13 -78 16 -100 3 -22 12 -65 21 -95 8 -30 19 -71 23 -90 12 -55 78 -216 129
-315 119 -234 296 -441 563 -660 77 -64 272 -177 400 -232 129 -57 404 -146
674 -220 57 -16 195 -55 315 -91 74 -22 144 -42 155 -45 36 -10 186 -54 365
-106 96 -29 200 -59 230 -67 30 -9 62 -19 70 -22 8 -3 20 -6 25 -7 94 -22 240
-71 300 -101 113 -55 213 -196 231 -324 24 -179 -16 -331 -118 -444 -42 -47
-135 -119 -157 -122 -3 0 -19 -6 -36 -13 -16 -7 -39 -15 -50 -17 -11 -2 -33
-7 -50 -10 -36 -8 -1266 -9 -1315 -1 -19 3 -57 8 -85 12 -95 13 -252 71 -355
133 -99 59 -115 65 -180 66 -107 1 -126 -15 -502 -392 -310 -312 -336 -341
-347 -384 -13 -57 -7 -107 23 -173 21 -46 80 -117 117 -140 9 -5 81 -53 160
-106 138 -92 271 -163 389 -208 30 -12 64 -26 75 -31 54 -24 266 -84 339 -94
21 -4 41 -8 45 -10 3 -2 34 -7 68 -11 34 -3 72 -8 84 -10 12 -3 76 -7 142 -10
66 -2 122 -7 125 -9 2 -3 4 -193 4 -424 1 -393 2 -424 21 -481 24 -74 77 -132
145 -158 42 -16 83 -18 382 -18 184 0 344 4 355 9 11 5 26 10 33 12 29 6 101
76 123 121 l24 48 3 445 c2 244 4 446 6 447 1 2 38 5 82 8 84 6 156 13 189 20
11 3 36 7 55 10 46 6 66 11 120 25 25 7 53 14 62 16 10 2 26 6 36 8 40 10 233
86 307 122 131 62 301 171 405 260 64 54 209 201 250 252 55 69 147 211 182
282 18 36 35 67 38 70 8 7 74 183 99 260 59 186 76 305 76 530 0 156 -4 214
-20 300 -2 14 -6 37 -9 51 -11 67 -56 215 -82 276 -8 17 -14 34 -14 37 0 3
-21 49 -46 103 -168 354 -432 651 -744 837 -25 15 -52 31 -60 36 -83 51 -290
127 -545 200 -99 28 -193 56 -210 61 -34 11 -202 59 -225 64 -8 2 -60 17 -115
33 -55 17 -127 38 -160 47 -85 23 -90 25 -400 115 -271 79 -364 105 -471 135
-186 51 -308 146 -386 300 -57 111 -60 290 -7 410 41 93 137 196 224 239 115
58 124 59 800 58 341 0 646 -3 678 -6 172 -19 262 -51 472 -167 70 -38 88 -44
141 -44 104 0 125 16 480 370 176 176 332 336 345 355 20 29 24 47 24 110 0
109 -37 172 -150 257 -165 125 -364 241 -520 304 -187 76 -417 140 -557 154
-29 3 -64 8 -78 10 -14 2 -79 7 -144 10 -66 3 -121 6 -122 8 -2 2 -4 195 -4
430 -1 469 -3 490 -61 561 -16 19 -55 47 -87 63 l-57 28 -327 1 c-280 1 -333
-1 -375 -15z"/>
</g>
</svg>
